<svg xmlns="http://www.w3.org/2000/svg" width="237.924" height="237.924" viewBox="0 0 237.924 237.924">
  <path id="Subtraction_2" data-name="Subtraction 2" d="M118.962,237.924a119.839,119.839,0,0,1-23.975-2.417,118.313,118.313,0,0,1-42.538-17.9,119.314,119.314,0,0,1-43.1-52.34,118.366,118.366,0,0,1-6.932-22.33,120.118,120.118,0,0,1,0-47.95,118.3,118.3,0,0,1,17.9-42.538,119.306,119.306,0,0,1,52.34-43.1,118.367,118.367,0,0,1,22.33-6.932,120.122,120.122,0,0,1,47.95,0,118.311,118.311,0,0,1,42.538,17.9,119.307,119.307,0,0,1,43.1,52.34,118.36,118.36,0,0,1,6.932,22.33,120.118,120.118,0,0,1,0,47.95,118.318,118.318,0,0,1-17.9,42.538,119.307,119.307,0,0,1-52.34,43.1,118.362,118.362,0,0,1-22.33,6.932A119.842,119.842,0,0,1,118.962,237.924Zm.919-165.353a46.245,46.245,0,1,0,18.057,3.646A46.1,46.1,0,0,0,119.881,72.571Z" fill="#fff"/>
</svg>
